<svg xmlns="http://www.w3.org/2000/svg" viewBox="0 0 400 70" fill="none">
  <g fill="#1a1a1a">
    <!-- P -->
    <path d="M0 55V10h14c9.5 0 15 5.5 15 13.5S23.5 37 14 37H7v18H0zm7 -24.5h6.5c5.5 0 8.5-3.2 8.5-7.5s-3-7.5-8.5-7.5H7v15z"/>
    <!-- I -->
    <rect x="42" y="10" width="6.5" height="45"/>
    <!-- C -->
    <path d="M82 55.5c-12.5 0-21-9.5-21-23s8.5-23 21-23c8 0 14 4 17 10l-6 3.5c-2-4-6-7-11-7-9 0-14 7-14 16.5s5 16.5 14 16.5c5 0 9-3 11-7l6 3.5c-3 6-9 10-17 10z"/>
    <!-- K -->
    <path d="M108 55V10h6.5v21L133 10h8.5l-19.5 22L142 55h-8.5l-16-19.5-2.5 2.8V55H108z"/>
    <!-- C -->
    <path d="M172 55.5c-12.5 0-21-9.5-21-23s8.5-23 21-23c8 0 14 4 17 10l-6 3.5c-2-4-6-7-11-7-9 0-14 7-14 16.5s5 16.5 14 16.5c5 0 9-3 11-7l6 3.5c-3 6-9 10-17 10z"/>
    <!-- O with dot -->
    <path d="M222 55.5c-13 0-21.5-9.5-21.5-23s8.5-23 21.5-23 21.5 9.5 21.5 23-8.5 23-21.5 23zm0-6.5c9 0 14.5-7 14.5-16.5S231 16 222 16s-14.5 7-14.5 16.5S213 49 222 49z"/>
    <circle cx="222" cy="3.5" r="3.5"/>
    <!-- S -->
    <path d="M276 55.5c-10 0-17.5-5-19-13l6.5-2c1 5.5 5.5 9 12.5 9 7 0 11-3.5 11-8 0-5-4-7-12-9-9-2.5-15.5-5.5-15.5-14 0-8 7-15 17.5-15 9 0 15.5 4.5 17.5 11.5l-6.5 2.5c-1.5-5-5.5-8-11-8-6.5 0-10.5 3.5-10.5 8 0 5 4 6.5 11.5 8.5 9.5 2.5 16 6 16 14.5 0 8.5-7 15-18 15z"/>
  </g>
</svg>